<svg width="185" height="46" viewBox="0 0 185 46" fill="none" xmlns="http://www.w3.org/2000/svg">
<path fill-rule="evenodd" clip-rule="evenodd" d="M79.5756 10.2502H75.0655C74.9393 10.2502 74.687 10.3132 74.5819 10.4184L72.2901 12.7102C72.2796 12.7207 72.0693 12.8784 72.0693 13.2884V22.3296C72.0693 22.4453 72.1218 22.5924 72.3111 22.5924H74.1719C74.3506 22.5924 74.4347 22.4558 74.4242 22.3401V18.1034C74.4242 17.9141 74.4873 17.5988 75.0655 17.5882H79.5651H84.0751C84.6533 17.5988 84.7059 17.9141 84.7164 18.1034V22.3401C84.7059 22.4558 84.79 22.5924 84.9688 22.5924H86.8295C87.0188 22.5924 87.0714 22.4453 87.0714 22.3296V13.2884C87.0714 12.8889 86.8611 12.7312 86.8506 12.7102L84.5587 10.4184C84.4641 10.3132 84.2013 10.2502 84.0751 10.2502H79.5756ZM79.5756 15.2439H75.0655C74.6029 15.2333 74.4452 14.939 74.4347 14.6236C74.4347 14.1505 74.4347 13.6353 74.4347 13.1518C74.4242 12.8574 74.6344 12.5946 75.0655 12.6156H79.5756H84.0857C84.5167 12.5946 84.7269 12.8574 84.7164 13.1518C84.7164 13.6248 84.7164 14.14 84.7164 14.6236C84.7059 14.9495 84.5482 15.2333 84.0857 15.2439H79.5756Z" fill="black"/>
<path fill-rule="evenodd" clip-rule="evenodd" d="M158.675 12.4684H153.818C153.493 12.4684 153.146 12.2897 153.146 11.8797V10.5445C153.146 10.4184 153.093 10.2607 152.893 10.2502H151.937H150.78C150.591 10.2607 150.528 10.4079 150.528 10.5445V11.8797C150.528 12.3002 150.181 12.4684 149.855 12.4684H144.998C144.84 12.4684 144.609 12.542 144.451 12.7102L142.233 14.9285C142.054 15.1282 142.023 15.2228 142.012 15.4856V17.4095C142.023 17.6724 142.138 17.8406 142.233 17.9247L144.504 20.1955C144.577 20.2586 144.725 20.3847 144.998 20.3742H149.897C150.349 20.3952 150.517 20.7211 150.538 20.9629C150.538 21.4886 150.538 21.8145 150.538 22.3401C150.528 22.4242 150.591 22.5819 150.791 22.5924H151.947H152.904C153.104 22.5819 153.156 22.4242 153.156 22.3401C153.156 21.825 153.156 21.4886 153.156 20.9629C153.167 20.7211 153.345 20.3952 153.797 20.3742H158.696C158.97 20.3742 159.117 20.2586 159.191 20.1955L161.461 17.9247C161.556 17.8406 161.682 17.6829 161.682 17.4095V15.4856C161.672 15.2228 161.651 15.1282 161.461 14.9285L159.243 12.7102C159.064 12.542 158.833 12.4684 158.675 12.4684ZM150.528 17.399V15.5172C150.538 15.2123 150.36 14.8233 149.855 14.8233C148.236 14.8233 146.617 14.8233 144.998 14.8233C144.504 14.8338 144.367 15.1597 144.367 15.5277V17.42C144.357 17.7459 144.693 18.0088 144.998 18.0088H149.897C150.36 17.9982 150.517 17.788 150.528 17.399ZM153.146 17.399V15.5172C153.135 15.2123 153.314 14.8233 153.829 14.8233C155.448 14.8233 157.067 14.8233 158.686 14.8233C159.18 14.8338 159.317 15.1597 159.317 15.5277V17.42C159.327 17.7459 158.991 18.0088 158.686 18.0088H153.776C153.303 17.9982 153.146 17.788 153.146 17.399Z" fill="black"/>
<path fill-rule="evenodd" clip-rule="evenodd" d="M177.504 10.2502H172.994C172.868 10.2502 172.616 10.3132 172.511 10.4184L170.219 12.7102C170.208 12.7207 169.998 12.8784 169.998 13.2884V22.3296C169.998 22.4453 170.051 22.5924 170.24 22.5924H172.101C172.279 22.5924 172.363 22.4558 172.353 22.3401V18.1034C172.353 17.9141 172.416 17.5988 172.994 17.5882H177.504H182.004C182.582 17.5988 182.635 17.9141 182.645 18.1034V22.3401C182.635 22.4558 182.719 22.5924 182.897 22.5924H184.758C184.947 22.5924 185 22.4453 185 22.3296V13.2884C185 12.8889 184.79 12.7312 184.779 12.7102L182.487 10.4184C182.393 10.3132 182.13 10.2502 182.004 10.2502H177.504ZM177.504 15.2439H172.994C172.532 15.2333 172.374 14.939 172.363 14.6236C172.363 14.1505 172.363 13.6353 172.363 13.1518C172.353 12.8574 172.563 12.5946 172.994 12.6156H177.504H182.014C182.445 12.5946 182.656 12.8574 182.645 13.1518C182.645 13.6248 182.645 14.14 182.645 14.6236C182.635 14.9495 182.477 15.2333 182.014 15.2439H177.504Z" fill="black"/>
<path fill-rule="evenodd" clip-rule="evenodd" d="M131.394 22.5924C131.52 22.5924 131.773 22.5294 131.878 22.4242L134.17 20.1744C134.233 20.1008 134.39 19.9011 134.39 19.5962V18.6606C134.39 18.4083 134.369 18.0508 134.17 17.8616L131.857 15.4962C131.71 15.3595 131.562 15.2964 131.394 15.2859L126.884 15.2964H124.414H122.374C121.796 15.2859 121.733 14.9705 121.733 14.7813V10.5445C121.743 10.4289 121.659 10.2922 121.48 10.2922H119.62C119.43 10.2922 119.378 10.4394 119.378 10.555V22.3086C119.378 22.5188 119.504 22.5609 119.609 22.5609L131.394 22.5924ZM126.884 17.6618L131.394 17.6513C131.857 17.6618 132.014 17.9562 132.025 18.2716C132.025 18.7447 132.025 19.2598 132.025 19.7434C132.035 20.0378 131.825 20.3006 131.394 20.2796H126.884L122.374 20.2901C121.943 20.3111 121.733 20.0483 121.743 19.7539C121.743 19.2808 121.743 18.7657 121.743 18.2821C121.754 17.9562 121.911 17.6724 122.374 17.6618H126.884Z" fill="black"/>
<path fill-rule="evenodd" clip-rule="evenodd" d="M97.9628 13.1728C97.9418 14.5815 97.9313 15.9903 97.9103 17.399C97.9103 17.5041 97.9208 17.6198 97.8156 17.7249C96.9851 19.2493 96.1441 20.7842 95.3135 22.3086C95.261 22.4032 95.2715 22.5924 95.4922 22.5924H97.2374C97.4372 22.5924 97.6369 22.4663 97.721 22.3086C98.562 20.7632 99.4031 19.2178 100.244 17.6724C100.307 17.5672 100.318 17.4621 100.318 17.357V13.2674C100.318 12.9205 100.665 12.6156 101.054 12.6156C103.093 12.6156 104.943 12.6261 106.983 12.6261C107.467 12.6261 107.708 12.9625 107.708 13.2779V22.3401C107.708 22.4663 107.761 22.603 107.961 22.603L109.821 22.5924C110.074 22.5924 110.137 22.4453 110.137 22.3296V13.2148C110.137 13.0992 110.074 12.9205 109.958 12.8153L107.572 10.4289C107.498 10.3553 107.309 10.2502 107.162 10.2502C105.133 10.2502 103.104 10.2502 101.085 10.2502C100.885 10.2502 100.759 10.3132 100.644 10.4289L98.0574 12.9415C98.0049 13.0046 97.9628 13.0887 97.9628 13.1728Z" fill="black"/>
<path d="M76.1168 33.1791H75.2547C75.118 33.7573 74.7186 34.1568 74.0983 34.1568C73.7514 34.1568 73.4675 34.0306 73.2678 33.8098C72.9839 33.5049 72.9208 33.1685 72.9208 32.0436C72.9208 30.9187 72.9734 30.5823 73.2678 30.2775C73.478 30.0567 73.7619 29.9305 74.0983 29.9305C74.7291 29.9305 75.1181 30.33 75.2442 30.9082H76.1168C75.917 29.7833 75.1391 29.1631 74.0983 29.1631C73.478 29.1631 73.0049 29.3733 72.637 29.7308C72.0903 30.288 72.0693 30.8556 72.0693 32.0331C72.0693 33.2211 72.0903 33.7783 72.637 34.3355C73.0049 34.7034 73.478 34.9032 74.0983 34.9032C75.1391 34.9137 75.9275 34.2934 76.1168 33.1791ZM80.9633 29.9831V29.2156H76.9894V29.9831H78.5453V34.8716H79.4073V29.9831H80.9633ZM86.2829 30.9293C86.2829 29.941 85.5785 29.2156 84.4746 29.2156H82.33V34.8716H83.1921V32.6429H84.4746C85.568 32.6324 86.2829 31.9175 86.2829 30.9293ZM85.4208 30.9293C85.4208 31.5285 85.0213 31.8754 84.4221 31.8754H83.1815V29.9831H84.4221C85.0213 29.9831 85.4208 30.3195 85.4208 30.9293ZM91.5604 32.0436C91.5604 30.8557 91.5394 30.2985 90.9927 29.7413C90.6247 29.3733 90.1516 29.1736 89.5314 29.1736C88.9111 29.1736 88.438 29.3838 88.0701 29.7413C87.5129 30.2985 87.5024 30.8662 87.5024 32.0436C87.5024 33.2316 87.5234 33.7888 88.0701 34.346C88.438 34.7139 88.9111 34.9137 89.5314 34.9137C90.1516 34.9137 90.6247 34.7034 90.9927 34.346C91.5499 33.7888 91.5604 33.2211 91.5604 32.0436ZM90.7088 32.0436C90.7088 33.1685 90.6563 33.505 90.3724 33.7993C90.1621 34.0201 89.8678 34.1568 89.5314 34.1568C89.1845 34.1568 88.9006 34.0201 88.6904 33.7993C88.4065 33.4944 88.3539 33.1685 88.3539 32.0436C88.3539 30.9187 88.4065 30.5823 88.6904 30.2775C88.9006 30.0567 89.195 29.9305 89.5314 29.9305C89.8678 29.9305 90.1621 30.0567 90.3724 30.2775C90.6563 30.5718 90.7088 30.9187 90.7088 32.0436ZM97.3846 34.8716V29.2156H96.5962L94.073 33.3157V29.2156H93.2109V34.8716H93.9889L96.5226 30.761V34.8716H97.3846ZM102.725 29.9831V29.2156H98.7513V29.9831H100.307V34.8716H101.169V29.9831H102.725ZM107.698 34.8716V34.1042H104.933V32.4011H107.288V31.6336H104.933V29.9831H107.698V29.2156H104.071V34.8716H107.698ZM113.175 34.8716V29.2156H109.853V31.6547C109.853 33.7047 109.401 34.1042 108.77 34.1042H108.623V34.8716H108.98C110.116 34.8716 110.694 34.1462 110.694 31.7703V29.9831H112.324V34.8716H113.175ZM119.01 33.158C119.01 32.1382 118.295 31.4444 117.212 31.4444H115.898V29.2156H115.036V34.8716H117.202C118.284 34.8716 119.01 34.1673 119.01 33.158ZM118.148 33.158C118.148 33.7467 117.769 34.1042 117.149 34.1042H115.909V32.2118H117.149C117.769 32.2118 118.148 32.5693 118.148 33.158ZM124.435 34.8716V29.2156H123.573V31.6441H121.281V29.2156H120.419V34.8716H121.281V32.4011H123.573V34.8716H124.435ZM130.448 34.8716L128.377 29.2156H127.683L125.612 34.8716H126.516L126.916 33.7362H129.144L129.544 34.8716H130.448ZM128.924 33.0003H127.168L128.062 30.4877L128.924 33.0003ZM133.36 32.6429H134.485V34.8716H135.347V29.2156H133.192C132.12 29.2156 131.384 29.878 131.384 30.9293C131.384 31.6967 131.804 32.2539 132.477 32.4852L131.247 34.8716H132.267L133.36 32.6429ZM134.485 31.8754H133.255C132.635 31.8754 132.256 31.4969 132.256 30.9187C132.256 30.33 132.635 29.9726 133.255 29.9726H134.485V31.8754ZM141.518 34.8716V29.2156H140.656V34.8716H141.518ZM144.893 34.8716L142.517 31.8859L144.693 29.2156H143.631L141.518 31.907L143.8 34.8716H144.893ZM149.771 32.0436C149.771 30.8557 149.75 30.2985 149.203 29.7413C148.835 29.3733 148.362 29.1736 147.742 29.1736C147.122 29.1736 146.649 29.3838 146.281 29.7413C145.723 30.2985 145.713 30.8662 145.713 32.0436C145.713 33.2316 145.734 33.7888 146.281 34.346C146.649 34.7139 147.122 34.9137 147.742 34.9137C148.362 34.9137 148.835 34.7034 149.203 34.346C149.75 33.7888 149.771 33.2211 149.771 32.0436ZM148.909 32.0436C148.909 33.1685 148.856 33.505 148.572 33.7993C148.362 34.0201 148.068 34.1568 147.731 34.1568C147.395 34.1568 147.101 34.0201 146.89 33.7993C146.617 33.4944 146.554 33.1685 146.554 32.0436C146.554 30.9187 146.606 30.5823 146.89 30.2775C147.101 30.0567 147.395 29.9305 147.731 29.9305C148.078 29.9305 148.362 30.0567 148.572 30.2775C148.856 30.5718 148.909 30.9187 148.909 32.0436ZM156.373 34.8716V29.2156H155.511L153.882 32.7375L152.231 29.2156H151.379V34.8716H152.241V31.0869L153.566 33.8413H154.197L155.501 31.0869V34.8716H156.373ZM162.229 34.8716V29.2156H158.223V34.8716H159.085V29.9831H161.377V34.8716H162.229ZM168.242 34.8716L166.182 29.2156H165.488L163.417 34.8716H164.321L164.72 33.7362H166.949L167.349 34.8716H168.242ZM166.718 33.0003H164.962L165.856 30.4877L166.718 33.0003ZM173.404 34.8716V29.2156H172.542V31.6441H170.25V29.2156H169.388V34.8716H170.25V32.4011H172.542V34.8716H173.404ZM179.428 34.8716V29.2156H178.64L176.116 33.3157V29.2156H175.254V34.8716H176.032L178.566 30.761V34.8716H179.428ZM183.013 32.6429H184.138V34.8716H185V29.2156H182.845C181.773 29.2156 181.037 29.878 181.037 30.9293C181.037 31.6967 181.457 32.2539 182.13 32.4852L180.9 34.8716H181.92L183.013 32.6429ZM184.138 31.8754H182.908C182.288 31.8754 181.909 31.4969 181.909 30.9187C181.909 30.33 182.288 29.9726 182.908 29.9726H184.138V31.8754Z" fill="black"/>
<path fill-rule="evenodd" clip-rule="evenodd" d="M17.9273 10.5866C17.9904 10.5866 18.106 10.5866 18.1691 10.4814C18.2216 10.3868 18.1691 10.2922 18.1481 10.2502L18.1271 10.2081L15.0677 4.87802L12.7759 0.872565L12.7549 0.830504C12.7444 0.809478 12.7339 0.788455 12.7128 0.767429C12.6708 0.693838 12.6077 0.662292 12.5341 0.662292C12.429 0.662292 12.3764 0.746413 12.3554 0.777952C12.3449 0.798978 12.3344 0.809478 12.3238 0.830504L8.23427 7.82165C7.76119 8.62064 7.29865 9.43015 6.82557 10.2291L6.81504 10.2397C6.79402 10.2712 6.75197 10.3343 6.75197 10.4184C6.75197 10.4499 6.7625 10.4709 6.77301 10.5025C6.78353 10.513 6.79401 10.534 6.80452 10.5445C6.88862 10.6181 6.97275 10.6076 7.02532 10.6076C7.03583 10.6076 7.03579 10.6076 7.0463 10.6076C7.3722 10.6076 7.69816 10.6076 8.02407 10.6076H16.6027C17.0337 10.5866 17.4752 10.5866 17.9273 10.5866Z" fill="#004E9B"/>
<path fill-rule="evenodd" clip-rule="evenodd" d="M37.9651 45.0167C37.9966 44.9641 37.9966 44.9011 37.9651 44.838C37.944 44.7854 37.9125 44.7328 37.8809 44.6803L34.6009 38.9612L32.5929 35.4498L32.5614 35.3868C32.5509 35.3657 32.5404 35.3447 32.5193 35.3237C32.4563 35.2291 32.3827 35.2081 32.3301 35.2081C32.2881 35.2081 32.2144 35.2186 32.1513 35.3132C32.1303 35.3447 32.1093 35.3868 32.0883 35.4183L31.3524 36.6693C30.9004 37.4368 30.4588 38.2042 30.0067 38.9717C29.3864 40.0335 28.7557 41.1058 28.1354 42.1677L26.9159 44.2492C26.8318 44.3859 26.7582 44.5226 26.6741 44.6698L26.5689 44.859C26.5374 44.9116 26.5374 44.9746 26.5689 45.0167C26.5795 45.0377 26.59 45.0482 26.611 45.0693C26.6951 45.1323 26.7792 45.1323 26.8108 45.1218H26.8213C28.167 45.1218 29.5126 45.1218 30.8583 45.1218H37.6812H37.7022C37.7338 45.1218 37.7758 45.1218 37.8179 45.1113C37.881 45.1008 37.9335 45.0692 37.9651 45.0167Z" fill="#003F78"/>
<path fill-rule="evenodd" clip-rule="evenodd" d="M5.8899 32.727C5.974 32.5903 6.04761 32.4536 6.13171 32.317L6.34195 31.9595C6.90965 30.9818 7.48787 30.0041 8.05558 29.0369L10.0425 25.6517C10.4841 24.8948 10.9257 24.1379 11.3672 23.3914C11.3672 23.3914 11.3672 23.3809 11.3777 23.3809C11.3987 23.3494 11.4513 23.2653 11.4198 23.1496C11.3987 23.0865 11.3356 23.034 11.2726 23.034H11.22C11.1779 23.034 11.1359 23.034 11.0939 23.034C10.9151 23.034 10.7364 23.034 10.5682 23.034H1.77931C1.27468 23.034 0.780581 23.034 0.275956 23.034H0.265433C0.223381 23.034 0.107758 23.0235 0.0236543 23.1391C-0.00788476 23.1917 -0.00788476 23.2547 0.0236543 23.3073L0.0972209 23.4335L5.42732 32.7375C5.44835 32.7795 5.4799 32.8216 5.50092 32.8636C5.54297 32.9162 5.59553 32.9478 5.65861 32.9478C5.72169 32.9478 5.78476 32.9162 5.8163 32.8636C5.83733 32.8216 5.86887 32.769 5.8899 32.727Z" fill="#003F78"/>
<path fill-rule="evenodd" clip-rule="evenodd" d="M12.5026 44.2177C12.5131 44.2072 12.5236 44.1862 12.5341 44.1757L13.3226 42.83C13.8482 41.9364 14.3634 41.0533 14.889 40.1597C15.4147 39.2556 15.9509 38.3515 16.4765 37.4473L17.9273 34.9663C17.9483 34.9242 17.9694 34.8927 17.9904 34.8506C18.0009 34.8296 18.0114 34.8086 18.0324 34.777C18.0639 34.7245 18.0639 34.6719 18.0324 34.6193C18.0009 34.5668 17.9483 34.5457 17.8957 34.5457H17.8012C17.7381 34.5457 17.6855 34.5457 17.6329 34.5457H10.4105C9.27507 34.5457 8.13968 34.5457 7.00427 34.5457C6.99376 34.5457 6.97276 34.5457 6.96224 34.5457C6.88865 34.5352 6.77298 34.5247 6.66785 34.6193C6.63631 34.6509 6.6153 34.6929 6.6153 34.7455C6.6153 34.8191 6.64682 34.8821 6.66785 34.9242C6.67836 34.9452 6.6889 34.9557 6.69942 34.9768C6.70993 34.9873 6.7204 34.9978 6.7204 35.0188C8.10812 37.4473 9.50638 39.8758 10.8941 42.3043L12.019 44.2703L12.0505 44.3333C12.0715 44.3754 12.1346 44.4805 12.2503 44.4805C12.3764 44.4805 12.4395 44.3649 12.471 44.2913C12.4816 44.2597 12.492 44.2387 12.5026 44.2177Z" fill="#002C4D"/>
<path fill-rule="evenodd" clip-rule="evenodd" d="M13.5539 0.388976L16.0139 4.67827L18.905 9.72453C18.926 9.75607 18.9471 9.79811 18.9681 9.84016C19.0101 9.89272 19.0627 9.92425 19.1258 9.92425C19.1889 9.92425 19.2519 9.89272 19.2835 9.84016C19.315 9.79811 19.336 9.75606 19.3676 9.71401L22.2061 4.87802C23.0472 3.44825 23.8777 2.02899 24.7082 0.599217C24.7503 0.525626 24.7923 0.452044 24.8344 0.378453L24.8974 0.262825C24.9185 0.220773 24.9289 0.178694 24.9184 0.136642C24.9079 0.0945901 24.8764 0.0630549 24.8449 0.0420289C24.7608 -2.30989e-05 24.6977 0 24.6661 0H16.918C15.8773 0 14.826 0 13.7852 0C13.6695 0 13.5644 -3.85374e-06 13.5118 0.0946132C13.4488 0.199743 13.5013 0.294359 13.5539 0.388976Z" fill="#002C4D"/>
<path fill-rule="evenodd" clip-rule="evenodd" d="M33.3393 34.9032C33.3498 34.9137 33.3604 34.9347 33.3604 34.9452L33.3709 34.9662L33.4024 35.0083L38.6799 44.2072C38.7115 44.2703 38.743 44.3123 38.7746 44.3649C38.8061 44.4174 38.8692 44.449 38.9322 44.449C38.9953 44.449 39.0584 44.4174 39.1005 44.3649C39.1425 44.3018 39.174 44.2492 39.2056 44.1967C39.5946 43.5238 39.9941 42.8615 40.383 42.1887L42.2754 38.9612C43.0638 37.6155 43.8523 36.2594 44.6408 34.9137L44.6513 34.9032C44.6723 34.8611 44.7144 34.7981 44.7249 34.6929C44.7249 34.6509 44.7144 34.6088 44.6829 34.5773C44.6514 34.5457 44.6092 34.5247 44.5672 34.5247H43.4213C41.9074 34.5247 40.3936 34.5247 38.8692 34.5247C37.7758 34.5247 36.6719 34.5247 35.5786 34.5247H34.3381C34.2645 34.5247 34.1909 34.5247 34.1173 34.5247C33.9491 34.5247 33.7703 34.5247 33.6021 34.5247C33.5075 34.5247 33.3814 34.5247 33.3183 34.6298C33.2553 34.7455 33.3078 34.8506 33.3393 34.9032Z" fill="#004E9B"/>
<path fill-rule="evenodd" clip-rule="evenodd" d="M44.4096 33.6101C44.4201 33.6101 44.4201 33.6101 44.4306 33.6101C44.4832 33.6101 44.5883 33.6206 44.6829 33.5365C44.7355 33.4839 44.746 33.4103 44.7144 33.3472L39.3107 23.9066C39.2897 23.875 39.2582 23.8225 39.2372 23.7804C39.2057 23.7279 39.1426 23.6963 39.0795 23.6963C39.0164 23.6963 38.9533 23.7279 38.9218 23.7804C38.8902 23.8225 38.8692 23.854 38.8482 23.896L34.212 31.8123C33.9281 32.2959 33.6443 32.7795 33.3604 33.2631C33.3604 33.2631 33.3604 33.2737 33.3499 33.2737C33.3289 33.3052 33.2763 33.3893 33.3079 33.505C33.3079 33.5155 33.3184 33.526 33.3184 33.5365C33.3499 33.5891 33.4025 33.6206 33.4551 33.6206H33.5286C33.5812 33.6206 33.6337 33.6206 33.6758 33.6206H42.9377C43.4319 33.6101 43.9155 33.6101 44.4096 33.6101Z" fill="#003F78"/>
<path fill-rule="evenodd" clip-rule="evenodd" d="M25.6333 0.883088L24.6977 2.49158C24.0458 3.60596 23.394 4.73085 22.7317 5.84523C22.2481 6.67576 21.754 7.50628 21.2704 8.33681L20.3242 9.9453C20.2506 10.0609 20.1875 10.1766 20.1245 10.2922C20.0824 10.3658 20.0825 10.4394 20.114 10.492C20.135 10.5235 20.1876 10.5866 20.2927 10.5971C20.3242 10.5971 20.3663 10.5971 20.3978 10.5971H30.7532C30.9424 10.5971 31.1211 10.5971 31.3103 10.5971C31.426 10.5971 31.4785 10.534 31.489 10.5025C31.51 10.4709 31.5416 10.3974 31.489 10.3027C31.4785 10.2712 31.4575 10.2502 31.447 10.2186L26.1379 0.946164L26.0959 0.872565C26.0854 0.851539 26.0748 0.830516 26.0538 0.80949C26.0328 0.767438 25.9697 0.672815 25.8646 0.672815C25.7595 0.672815 25.6964 0.756925 25.6648 0.80949C25.6648 0.830516 25.6438 0.851549 25.6333 0.883088Z" fill="#004E9B"/>
<path fill-rule="evenodd" clip-rule="evenodd" d="M9.5484 22.0983C10.0635 22.0983 10.5892 22.0983 11.1044 22.0983C11.1149 22.0983 11.1254 22.0983 11.1359 22.0983C11.1884 22.0983 11.2621 22.0983 11.3567 22.0668C11.3987 22.0458 11.4302 22.0142 11.4513 21.9722C11.4618 21.9301 11.4618 21.8776 11.4408 21.8355L6.04759 12.4263C6.02656 12.3738 5.98451 12.3212 5.95297 12.2687C5.92143 12.2161 5.85836 12.1846 5.79529 12.1846C5.73221 12.1846 5.66914 12.2161 5.6376 12.2687C5.60606 12.3212 5.57451 12.3738 5.53246 12.4369C5.39579 12.6682 5.25914 12.8995 5.12247 13.1413L2.55729 17.5252C2.22088 18.0929 1.88444 18.6711 1.54802 19.2388C1.2852 19.6908 1.01188 20.1534 0.749054 20.6055L0.0972209 21.7094C0.0761949 21.7409 0.0551715 21.7829 0.0341454 21.825C0.00260642 21.8881 0.0131297 21.9512 0.0446687 22.0037C0.0762077 22.0563 0.128788 22.0878 0.191866 22.0983C0.233918 22.1088 0.275955 22.1089 0.307494 22.1089H0.318017C1.94753 22.1089 3.56652 22.1089 5.19604 22.1089L9.5484 22.0983Z" fill="#002C4D"/>
<path fill-rule="evenodd" clip-rule="evenodd" d="M24.6451 44.88L19.2309 35.4288L19.1994 35.3763C19.1889 35.3552 19.1783 35.3447 19.1678 35.3237C19.1468 35.2921 19.0942 35.1975 18.9786 35.1975C18.8735 35.1975 18.8209 35.2921 18.7999 35.3237C18.6632 35.5445 18.5371 35.7758 18.4004 35.9965L17.2124 38.0361C16.6868 38.9297 16.1611 39.8233 15.646 40.7169C15.1834 41.5053 14.7208 42.2938 14.2583 43.0928L13.291 44.7328C13.2279 44.838 13.1859 44.9221 13.2385 45.0167C13.291 45.1113 13.3962 45.1113 13.5223 45.1113C13.5329 45.1113 13.5434 45.1113 13.5434 45.1113H15.5093C16.6868 45.1113 17.8642 45.1113 19.0417 45.1113C20.7868 45.1113 22.5425 45.1113 24.2877 45.1113C24.3297 45.1113 24.3718 45.1113 24.4243 45.1113H24.5085C24.561 45.1113 24.6136 45.0798 24.6451 45.0272C24.6767 44.9851 24.6767 44.9326 24.6451 44.88Z" fill="#004E9B"/>
<path fill-rule="evenodd" clip-rule="evenodd" d="M17.8537 33.6101C17.9273 33.6101 17.9798 33.5785 18.0219 33.5154C18.0534 33.4629 18.0534 33.3893 18.0324 33.3367C18.0114 33.2947 17.9904 33.2631 17.9693 33.2211L17.9484 33.1791L14.8049 27.6913L12.6392 23.9066L12.6077 23.8435C12.5762 23.7909 12.5236 23.6963 12.408 23.6963C12.2818 23.6963 12.2292 23.8119 12.1872 23.8855C12.1872 23.8855 12.1767 23.8961 12.1767 23.9066L7.35122 32.1488C7.14096 32.5167 6.92021 32.8742 6.70995 33.2421C6.70995 33.2526 6.69942 33.2526 6.69942 33.2526C6.6784 33.2947 6.61533 33.3683 6.64687 33.4839C6.64687 33.5049 6.65734 33.5155 6.66785 33.526C6.68888 33.5575 6.72044 33.5785 6.75198 33.5996C6.82557 33.6206 6.88864 33.6206 6.9412 33.6206C6.95171 33.6206 6.96226 33.6206 6.97277 33.6206H17.5698C17.6434 33.6101 17.7486 33.6101 17.8537 33.6101Z" fill="#004E9B"/>
<path fill-rule="evenodd" clip-rule="evenodd" d="M31.3629 34.6929C31.3524 34.6509 31.3314 34.6088 31.2894 34.5878C31.2053 34.5352 31.1317 34.5352 31.0791 34.5457C31.0686 34.5457 31.0581 34.5457 31.0581 34.5457C30.0909 34.5457 29.1131 34.5457 28.1459 34.5457H20.4084C20.3138 34.5457 20.2296 34.5457 20.135 34.5457C20.0719 34.5457 20.0089 34.5773 19.9774 34.6403C19.9458 34.6929 19.9458 34.7665 19.9668 34.8191C19.9984 34.8716 20.0194 34.9242 20.051 34.9768C21.8172 38.0571 23.5833 41.1374 25.3495 44.2177L25.381 44.2703L25.4126 44.3228C25.4336 44.3649 25.4862 44.4595 25.6018 44.4595C25.7174 44.4595 25.7805 44.3544 25.8121 44.3018C25.8962 44.1651 25.9803 44.018 26.0539 43.8813C26.0854 43.8182 26.1275 43.7656 26.159 43.7026L28.6926 39.3712C29.1657 38.5617 29.6388 37.7522 30.1119 36.9427C30.5008 36.2699 30.9004 35.597 31.2894 34.9242C31.2894 34.9137 31.2998 34.9137 31.2998 34.9032C31.3314 34.8716 31.3734 34.7981 31.3629 34.6929Z" fill="#002C4D"/>
<path fill-rule="evenodd" clip-rule="evenodd" d="M12.9336 20.7106L17.7381 12.5105C17.8642 12.3002 17.9903 12.0794 18.106 11.8692L18.1165 11.8587C18.1796 11.7641 18.1901 11.6799 18.1376 11.5853C18.106 11.5328 18.0534 11.5012 18.0009 11.5012C14.3424 11.5012 10.6733 11.5012 7.00425 11.5012H6.99373C6.96219 11.5012 6.87808 11.5012 6.79398 11.5748C6.74141 11.6274 6.73093 11.701 6.76247 11.7746L12.1662 21.2047C12.1872 21.2257 12.1977 21.2573 12.2082 21.2888C12.2292 21.3204 12.2397 21.3414 12.2608 21.3519C12.3028 21.394 12.3554 21.415 12.408 21.415C12.4605 21.415 12.5131 21.3834 12.5446 21.3414C12.5762 21.2888 12.6077 21.2468 12.6392 21.1942C12.7338 21.047 12.839 20.8788 12.9336 20.7106Z" fill="#003F78"/>
<path fill-rule="evenodd" clip-rule="evenodd" d="M35.3053 11.5117C34.7691 11.5117 34.233 11.5117 33.6968 11.5117H33.6863C33.6442 11.5117 33.5391 11.5012 33.4655 11.5958C33.4234 11.6379 33.413 11.701 33.434 11.7535V11.764C33.4445 11.7851 33.4445 11.8061 33.4655 11.8376C35.2842 15.002 37.0925 18.1665 38.9113 21.3309C38.9428 21.3834 38.9848 21.4045 39.0059 21.415C39.0584 21.4465 39.1215 21.436 39.1741 21.4045C39.2372 21.3519 39.2687 21.2993 39.2897 21.2468C39.3002 21.2363 39.3002 21.2258 39.3107 21.2152C39.8259 20.3427 40.3305 19.4701 40.8456 18.5975C42.1493 16.3687 43.4634 14.14 44.767 11.9007V11.8902C44.788 11.8587 44.809 11.8166 44.83 11.7746C44.8511 11.7115 44.8511 11.6484 44.8196 11.5958C44.788 11.5433 44.7249 11.5012 44.6619 11.5012C44.6093 11.5012 44.5672 11.5012 44.5252 11.5012H39.1636C37.881 11.5117 36.5984 11.5117 35.3053 11.5117Z" fill="#003F78"/>
<path fill-rule="evenodd" clip-rule="evenodd" d="M26.8633 0.304854C26.8949 0.357419 26.9159 0.41 26.9474 0.452052L27.0841 0.36793L26.9474 0.452052L28.2616 2.7544L32.2144 9.65093L32.2565 9.72453C32.267 9.74556 32.2775 9.76658 32.2985 9.78761C32.3511 9.87171 32.4142 9.90324 32.4878 9.90324C32.5403 9.90324 32.614 9.88223 32.6665 9.78761C32.6981 9.73504 32.7296 9.68245 32.7611 9.62989L33.4655 8.43142C34.1698 7.23294 34.8742 6.03444 35.5681 4.83596C36.3145 3.55337 37.0609 2.2813 37.8179 0.998716L38.1543 0.420514C38.1753 0.378462 38.2069 0.325892 38.2279 0.28384C38.2594 0.220762 38.2594 0.157669 38.2279 0.105104C38.1963 0.0525394 38.1438 0.0210042 38.0912 0.0104912C38.0597 -2.18163e-05 38.0281 3.7266e-10 37.9966 3.7266e-10H37.86C37.5656 3.7266e-10 37.2712 3.7266e-10 36.9768 3.7266e-10H35.3263C34.3065 3.7266e-10 33.2763 3.7266e-10 32.2565 3.7266e-10C31.1632 3.7266e-10 30.0803 3.7266e-10 28.9974 3.7266e-10H27.3049C27.2208 3.7266e-10 27.1366 3.7266e-10 27.042 3.7266e-10C26.9579 3.7266e-10 26.8949 0.0420482 26.8633 0.0946132C26.8213 0.157691 26.8213 0.231263 26.8633 0.304854Z" fill="#003F78"/>
<path fill-rule="evenodd" clip-rule="evenodd" d="M40.0887 23.0866C40.0362 23.1286 40.0151 23.1917 40.0257 23.2548C40.0362 23.3073 40.0572 23.3494 40.0782 23.3809C40.0887 23.3914 40.0992 23.4125 40.0992 23.423C40.1097 23.4335 40.1097 23.444 40.1202 23.4545C40.32 23.8014 40.5092 24.1379 40.709 24.4743L45.4188 32.6954L45.4398 32.7375C45.4608 32.769 45.4819 32.8111 45.5134 32.8531C45.5555 32.9057 45.6081 32.9372 45.6711 32.9372C45.7342 32.9372 45.7973 32.9057 45.8288 32.8426C45.8498 32.8111 45.8708 32.7796 45.8919 32.748C46.0496 32.4852 46.1967 32.2224 46.3544 31.9595L50.1076 25.5466C50.5281 24.8212 50.9486 24.1063 51.3692 23.3914C51.3692 23.3809 51.3797 23.3809 51.3797 23.3704C51.4007 23.3389 51.4533 23.2548 51.4428 23.1602C51.4323 23.1286 51.4218 23.097 51.3902 23.0655C51.3271 23.0024 51.243 23.0024 51.2114 23.0024H51.2009C47.5319 23.0024 43.8734 23.0024 40.2044 23.013C40.1518 23.034 40.1098 23.076 40.0887 23.0866Z" fill="#002C4D"/>
<path fill-rule="evenodd" clip-rule="evenodd" d="M51.4217 25.1786C50.8435 26.1669 50.2654 27.1551 49.6871 28.1538C49.1615 29.058 48.6253 29.9621 48.0997 30.8662C47.6476 31.6441 47.185 32.4221 46.7329 33.2001C46.7329 33.2106 46.7225 33.2106 46.7225 33.2211C46.6909 33.2631 46.6594 33.3262 46.6383 33.4208C46.6278 33.4629 46.6384 33.4944 46.6594 33.526C46.6594 33.5365 46.6698 33.5365 46.6698 33.547C46.7014 33.5785 46.7435 33.6101 46.7855 33.6101H46.8276C46.8591 33.6101 46.8801 33.6101 46.9012 33.6101H57.719H57.7716C57.8031 33.6101 57.8347 33.6101 57.8662 33.6101C57.9398 33.6101 58.0029 33.568 58.0344 33.5154C58.0554 33.4839 58.0765 33.4103 58.0344 33.3157C58.0134 33.2842 57.9924 33.2421 57.9713 33.2001L55.3116 28.5638L52.6517 23.9276C52.5782 23.8014 52.5256 23.7068 52.41 23.7068C52.2943 23.7068 52.2418 23.8014 52.1682 23.9276L51.4217 25.1786Z" fill="#003F78"/>
<path fill-rule="evenodd" clip-rule="evenodd" d="M39.0374 0.767437C37.3238 3.69005 35.5786 6.66524 33.8965 9.5458L33.455 10.3027C33.4235 10.3553 33.4235 10.4184 33.455 10.4604C33.4655 10.4709 33.476 10.492 33.4865 10.5025C33.5601 10.5761 33.6442 10.5656 33.6863 10.5656C33.7493 10.5656 33.8019 10.5656 33.865 10.5656H35.074C35.9991 10.5656 36.9348 10.5656 37.86 10.5656C38.3541 10.5656 38.8587 10.5656 39.3528 10.5656C39.8995 10.5656 40.4356 10.5656 40.9823 10.5656C41.6656 10.5656 42.349 10.5656 43.0323 10.5656H44.5462C44.5988 10.5656 44.6408 10.5656 44.6934 10.5656C44.7565 10.5656 44.8195 10.5235 44.8511 10.471C44.8826 10.4184 44.8826 10.3448 44.8616 10.2922C44.8301 10.2291 44.7985 10.1766 44.7669 10.1135L39.8784 1.57696C39.7418 1.33516 39.6051 1.10385 39.4684 0.86205C39.4684 0.851537 39.4579 0.841025 39.4579 0.830512C39.4474 0.819999 39.4474 0.798996 39.4369 0.788483C39.4159 0.756944 39.3843 0.704352 39.3212 0.6623C39.2687 0.620248 39.1846 0.630772 39.132 0.672824C39.1005 0.704363 39.0584 0.725385 39.0374 0.767437Z" fill="#002C4D"/>
<path fill-rule="evenodd" clip-rule="evenodd" d="M45.3031 12.8574L40.9823 20.227C40.6985 20.7211 40.4041 21.2152 40.1202 21.7094C40.1202 21.7199 40.1097 21.7199 40.1097 21.7304C40.0887 21.7724 40.0466 21.825 40.0361 21.8986C40.0361 21.9301 40.0361 21.9617 40.0572 21.9932C40.0677 22.0247 40.0992 22.0458 40.1308 22.0563H40.1413C40.1623 22.0668 40.1938 22.0878 40.2464 22.0878C43.9154 22.0878 47.574 22.0878 51.243 22.0878C51.2746 22.0878 51.2956 22.0878 51.3166 22.0773C51.3271 22.0773 51.3376 22.0773 51.3481 22.0773C51.3902 22.0668 51.4323 22.0457 51.4533 22.0142C51.4743 21.9827 51.4848 21.9301 51.4743 21.8881C51.4638 21.8145 51.4322 21.7619 51.4112 21.7198C51.4007 21.7093 51.3902 21.6883 51.3902 21.6778C51.3797 21.6673 51.3797 21.6568 51.3692 21.6463C50.0761 19.3965 48.7935 17.1467 47.5004 14.8969L46.0811 12.4263L46.0496 12.3633C46.0391 12.3422 46.0285 12.3212 46.018 12.3002C45.9549 12.2056 45.8814 12.1846 45.8393 12.1846C45.7973 12.1846 45.7237 12.2056 45.6606 12.3002C45.5239 12.4789 45.4083 12.6682 45.3031 12.8574Z" fill="#004E9B"/>
<path fill-rule="evenodd" clip-rule="evenodd" d="M46.6803 34.5983C46.6278 34.6403 46.6068 34.7034 46.6173 34.7665C46.6278 34.819 46.6488 34.8611 46.6698 34.8926C46.6803 34.9031 46.6909 34.9242 46.6909 34.9347C46.7014 34.9452 46.7014 34.9557 46.7119 34.9662C46.9117 35.3132 47.1009 35.6496 47.3006 35.986L52.0104 44.2072L52.0315 44.2492C52.0525 44.2808 52.0736 44.3228 52.1051 44.3649C52.1366 44.4174 52.1997 44.449 52.2627 44.449C52.3258 44.449 52.3889 44.4174 52.4205 44.3649C52.4415 44.3333 52.4625 44.3018 52.4835 44.2702C52.6412 44.0074 52.7884 43.7446 52.9461 43.4818L56.6993 37.0688C57.1198 36.3434 57.5403 35.6286 57.9608 34.9137C57.9608 34.9032 57.9713 34.9032 57.9713 34.9032C57.9923 34.8716 58.0449 34.7875 58.0344 34.6929C58.0239 34.6614 58.0134 34.6298 57.9818 34.5983C57.9187 34.5352 57.8347 34.5352 57.8031 34.5457C54.1341 34.5457 50.4755 34.5457 46.8065 34.5562C46.7434 34.5457 46.7014 34.5878 46.6803 34.5983Z" fill="#004E9B"/>
<path fill-rule="evenodd" clip-rule="evenodd" d="M58.0134 36.6904C57.4352 37.6786 56.857 38.6668 56.2788 39.6656C55.7531 40.5697 55.2169 41.4738 54.6913 42.3779C54.2392 43.1559 53.7767 43.9339 53.3246 44.7118C53.3246 44.7223 53.3141 44.7223 53.3141 44.7328C53.2825 44.7749 53.251 44.838 53.23 44.9326C53.2195 44.9746 53.23 45.0062 53.251 45.0377C53.251 45.0482 53.2615 45.0482 53.2615 45.0587C53.2931 45.0903 53.3351 45.1113 53.3772 45.1218H53.4192C53.4508 45.1218 53.4718 45.1218 53.4928 45.1218H64.3107H64.3633C64.3948 45.1218 64.4264 45.1218 64.4579 45.1218C64.5315 45.1218 64.5945 45.0798 64.6261 45.0272C64.6471 44.9957 64.6681 44.9221 64.6261 44.8274C64.6051 44.7854 64.584 44.7539 64.563 44.7118L61.9033 40.0651L59.2434 35.4288C59.1698 35.3027 59.1173 35.2081 59.0017 35.2081C58.886 35.2081 58.8334 35.3027 58.7598 35.4183L58.0134 36.6904Z" fill="#002C4D"/>
</svg>
