<svg width="15" height="25" viewBox="0 0 15 25" fill="none" xmlns="http://www.w3.org/2000/svg">
<path d="M2.86544 0.249557L14.539 11.9239C14.7059 12.0907 14.7896 12.2826 14.7896 12.4996C14.7896 12.7167 14.7059 12.9089 14.539 13.0758L2.86544 24.7492C2.69821 24.9164 2.50632 24.9998 2.28916 24.9998C2.07209 24.9998 1.87993 24.9161 1.71305 24.7492L0.460895 23.4969C0.293923 23.33 0.210481 23.1378 0.210481 22.9207C0.210481 22.7037 0.293923 22.5115 0.460895 22.3445L10.3056 12.4996L0.460279 2.65437C0.293308 2.48748 0.210394 2.29524 0.210394 2.07852C0.210394 1.8611 0.293835 1.66895 0.460279 1.50206L1.71296 0.249647C1.87984 0.0827637 2.07209 -0.000154495 2.28907 -0.000154495C2.50632 -0.000242233 2.69847 0.082674 2.86544 0.249557Z" fill="#E2E1E1"/>
</svg>
