<svg width="18" height="18" viewBox="0 0 18 18" fill="none" xmlns="http://www.w3.org/2000/svg">
<path d="M7.45351 10.5464C5.73544 8.82838 5.34751 7.11031 5.25999 6.42196C5.23553 6.23163 5.30103 6.04076 5.4372 5.90555L6.82754 4.51582C7.03206 4.31143 7.06836 3.99289 6.91506 3.74772L4.70137 0.310342C4.53177 0.0388677 4.18354 -0.0591102 3.89726 0.0841008L0.343507 1.75779C0.112008 1.87178 -0.0241567 2.11775 0.0021274 2.37445C0.188334 4.14341 0.959541 8.49196 5.23299 12.7657C9.50644 17.0395 13.8544 17.8104 15.6243 17.9966C15.881 18.0229 16.1269 17.8867 16.2409 17.6552L17.9146 14.1014C18.0573 13.8158 17.96 13.4685 17.6896 13.2986L14.2522 11.0855C14.0072 10.9321 13.6887 10.9681 13.4841 11.1724L12.0944 12.5628C11.9592 12.6989 11.7683 12.7644 11.578 12.74C10.8896 12.6524 9.17157 12.2645 7.45351 10.5464Z" fill="#4F4646"/>
<path d="M14.2758 9.6207C13.933 9.6207 13.6551 9.34281 13.6551 9.00001C13.6522 6.43023 11.5697 4.34774 8.99996 4.34483C8.65716 4.34483 8.37927 4.06694 8.37927 3.72414C8.37927 3.38135 8.65716 3.10345 8.99996 3.10345C12.255 3.10705 14.8929 5.74492 14.8965 9.00001C14.8965 9.34281 14.6186 9.6207 14.2758 9.6207Z" fill="#4F4646"/>
<path d="M17.3793 9.62069C17.0365 9.62069 16.7586 9.3428 16.7586 9C16.7538 4.71702 13.2829 1.24617 8.99996 1.24138C8.65716 1.24138 8.37927 0.963487 8.37927 0.62069C8.37927 0.277892 8.65716 0 8.99996 0C13.9683 0.0054732 17.9945 4.03171 18 9C18 9.16462 17.9346 9.32249 17.8182 9.43889C17.7018 9.5553 17.5439 9.62069 17.3793 9.62069Z" fill="#4F4646"/>
</svg>
