<svg width="15" height="25" viewBox="0 0 15 25" fill="none" xmlns="http://www.w3.org/2000/svg">
<path d="M12.1345 0.249557L0.460977 11.9239C0.294006 12.0907 0.210388 12.2826 0.210388 12.4996C0.210388 12.7167 0.294006 12.9089 0.460977 13.0758L12.1345 24.7492C12.3017 24.9164 12.4936 24.9998 12.7108 24.9998C12.9279 24.9998 13.12 24.9161 13.2869 24.7492L14.539 23.4969C14.706 23.33 14.7895 23.1378 14.7895 22.9207C14.7895 22.7037 14.706 22.5115 14.539 22.3445L4.69431 12.4996L14.5397 2.65437C14.7066 2.48748 14.7895 2.29524 14.7895 2.07852C14.7895 1.8611 14.7061 1.66895 14.5397 1.50206L13.287 0.249647C13.1201 0.0827637 12.9279 -0.000154495 12.7109 -0.000154495C12.4936 -0.000242233 12.3015 0.082674 12.1345 0.249557Z" fill="#282626"/>
</svg>
