<svg width="15" height="25" viewBox="0 0 15 25" fill="none" xmlns="http://www.w3.org/2000/svg">
<path d="M12.1346 0.249557L0.461038 11.9239C0.294067 12.0907 0.210449 12.2826 0.210449 12.4996C0.210449 12.7167 0.294067 12.9089 0.461038 13.0758L12.1346 24.7492C12.3018 24.9164 12.4937 24.9998 12.7108 24.9998C12.9279 24.9998 13.1201 24.9161 13.287 24.7492L14.5391 23.4969C14.7061 23.33 14.7895 23.1378 14.7895 22.9207C14.7895 22.7037 14.7061 22.5115 14.5391 22.3445L4.69437 12.4996L14.5397 2.65437C14.7067 2.48748 14.7896 2.29524 14.7896 2.07852C14.7896 1.8611 14.7062 1.66895 14.5397 1.50206L13.287 0.249647C13.1202 0.0827637 12.9279 -0.000154495 12.7109 -0.000154495C12.4937 -0.000242233 12.3015 0.082674 12.1346 0.249557Z" fill="#E2E1E1"/>
</svg>
