<svg width="20" height="20" viewBox="0 0 20 20" fill="none" xmlns="http://www.w3.org/2000/svg">
<g clip-path="url(#clip0)">
<path d="M4.69983 9.74593H10.8832C11.1035 9.74593 11.2821 9.56728 11.2821 9.347C11.2821 9.12672 11.1035 8.94807 10.8832 8.94807H4.69983C4.47942 8.94807 4.3009 9.12672 4.3009 9.347C4.3009 9.56728 4.47942 9.74593 4.69983 9.74593Z" fill="#103550"/>
<path d="M8.40175 11.5411H4.69983C4.47942 11.5411 4.3009 11.7197 4.3009 11.94C4.3009 12.1603 4.47942 12.339 4.69983 12.339H8.40175C8.62203 12.339 8.80068 12.1603 8.80068 11.94C8.80068 11.7197 8.62203 11.5411 8.40175 11.5411Z" fill="#103550"/>
<path d="M15.3271 10.6554V3.76201C15.3269 2.66047 14.4339 1.76775 13.3325 1.76737H11.6969V1.00542C11.6969 0.785015 11.5184 0.606495 11.298 0.606495C11.0777 0.606495 10.899 0.785015 10.899 1.00542V1.76737H5.47363V1.00542C5.47363 0.785015 5.29511 0.606495 5.0747 0.606495C4.85442 0.606495 4.67577 0.785015 4.67577 1.00542V1.76737H3.04017C1.93876 1.76775 1.04603 2.66047 1.04553 3.76201V14.569C1.04603 15.6704 1.93876 16.5631 3.04017 16.5636H10.4244C11.192 18.5296 13.2505 19.6708 15.3245 19.2803C17.3986 18.89 18.9013 17.0785 18.9017 14.9679C18.9055 12.8257 17.3617 11.0385 15.3271 10.6554ZM3.04428 2.56523H4.67989V3.32718C4.67989 3.54746 4.85841 3.72611 5.07882 3.72611C5.2991 3.72611 5.47774 3.54746 5.47774 3.32718V2.56523H10.9032V3.32718C10.9032 3.54746 11.0817 3.72611 11.3021 3.72611C11.5224 3.72611 11.701 3.54746 11.701 3.32718V2.56523H13.3366C13.9967 2.5671 14.5314 3.10179 14.5334 3.76201V4.72742H1.8475V3.76201C1.848 3.10116 2.38356 2.56573 3.04428 2.56523ZM3.04428 15.7657C2.38406 15.7639 1.84937 15.2291 1.8475 14.569V5.52128H14.5293V10.5797H14.5173C13.2144 10.5817 11.9796 11.1615 11.1461 12.1631C10.3125 13.1645 9.96643 14.4842 10.2009 15.7657H3.04428ZM14.5173 18.5582C12.5345 18.5582 10.927 16.9508 10.927 14.9679C10.927 12.985 12.5345 11.3775 14.5173 11.3775C16.5002 11.3775 18.1077 12.985 18.1077 14.9679C18.1047 16.9496 16.499 18.5552 14.5173 18.5582Z" fill="#103550"/>
<path d="M16.3644 13.5357L13.9948 15.7977L12.77 14.569C12.6148 14.4136 12.363 14.4136 12.2077 14.569C12.0522 14.7243 12.0522 14.9761 12.2077 15.1315L13.7115 16.6354C13.7863 16.7107 13.8885 16.7525 13.9948 16.7511C14.0978 16.752 14.1968 16.7118 14.27 16.6393L16.9189 14.1061C16.9952 14.0332 17.0393 13.9331 17.0417 13.8275C17.0438 13.7219 17.004 13.6198 16.9308 13.5437C16.7755 13.3879 16.524 13.3843 16.3644 13.5357Z" fill="#103550"/>
</g>
<defs>
<clipPath id="clip0">
<rect width="20" height="20" fill="white" transform="translate(0 0.00012207)"/>
</clipPath>
</defs>
</svg>
