<svg width="41" height="40" viewBox="0 0 41 40" fill="none" xmlns="http://www.w3.org/2000/svg">
<path d="M17.9465 23.7468L24.6149 19.9999L17.9465 16.2529V23.7468Z" fill="white"/>
<path d="M20.5 0C9.17989 0 0 8.95599 0 20C0 31.044 9.17989 40 20.5 40C31.8201 40 41 31.044 41 20C41 8.95599 31.8201 0 20.5 0ZM33.3094 20.0204C33.3094 20.0204 33.3094 24.0765 32.782 26.0324C32.4864 27.103 31.6212 27.9471 30.5238 28.2352C28.5191 28.75 20.5 28.75 20.5 28.75C20.5 28.75 12.5019 28.75 10.4762 28.2147C9.37884 27.9266 8.51362 27.0822 8.21802 26.0117C7.69032 24.0765 7.69032 20 7.69032 20C7.69032 20 7.69032 15.9442 8.21802 13.9883C8.51331 12.9178 9.3998 12.0529 10.4762 11.7648C12.4809 11.25 20.5 11.25 20.5 11.25C20.5 11.25 28.5191 11.25 30.5238 11.7853C31.6212 12.0734 32.4864 12.9178 32.782 13.9883C33.3306 15.9442 33.3094 20.0204 33.3094 20.0204Z" fill="white"/>
</svg>
