<svg width="40" height="41" viewBox="0 0 40 41" fill="none" xmlns="http://www.w3.org/2000/svg">
<path d="M20 0C8.95468 0 0 9.17813 0 20.5C0 31.8219 8.95468 41 20 41C31.0453 41 40 31.8219 40 20.5C40 9.17813 31.0453 0 20 0ZM30.1451 22.7171C31.0772 23.6504 32.0634 24.5287 32.9003 25.5584C33.271 26.0139 33.6205 26.485 33.8864 27.0147C34.2662 27.7701 33.9233 28.5985 33.2636 28.6434L29.1662 28.6425C28.108 28.7323 27.2659 28.2948 26.5559 27.5533C25.9892 26.9623 25.4633 26.331 24.9174 25.7199C24.6944 25.4691 24.4595 25.2329 24.1796 25.0471C23.6211 24.6747 23.1358 24.7887 22.8158 25.3869C22.4896 25.9955 22.4151 26.6699 22.384 27.3473C22.3394 28.3376 22.0481 28.5964 21.0787 28.643C19.0073 28.7424 17.0418 28.4202 15.2151 27.3498C13.6037 26.4057 12.3564 25.0731 11.2696 23.5644C9.15315 20.6233 7.53228 17.3953 6.07591 14.0746C5.74813 13.3268 5.98793 12.9266 6.79284 12.9111C8.13013 12.8847 9.46742 12.8881 10.8047 12.9099C11.349 12.9187 11.7091 13.2379 11.9182 13.7643C12.6408 15.5867 13.5268 17.3207 14.6369 18.9288C14.9328 19.357 15.2348 19.784 15.6649 20.0864C16.1395 20.4203 16.5013 20.31 16.7251 19.7668C16.8683 19.4216 16.9301 19.0525 16.9612 18.6826C17.0676 17.4155 17.0803 16.1488 16.8962 14.8867C16.7816 14.0969 16.3482 13.5868 15.5802 13.4375C15.189 13.3616 15.2462 13.2131 15.4365 12.9841C15.7668 12.5882 16.0761 12.3432 16.6944 12.3432L21.3238 12.3424C22.0534 12.4892 22.2171 12.8247 22.3161 13.578L22.3202 18.8512C22.3116 19.1427 22.463 20.0067 22.9737 20.1976C23.3829 20.336 23.653 19.9996 23.8977 19.7341C25.0079 18.5265 25.7989 17.1013 26.5072 15.6261C26.8198 14.9756 27.0895 14.3024 27.3514 13.6279C27.5462 13.1292 27.849 12.8839 28.3982 12.8922L32.8561 12.8977C32.9874 12.8977 33.1208 12.899 33.2509 12.922C34.0023 13.0537 34.2081 13.3851 33.9757 14.1363C33.6098 15.3166 32.899 16.2998 32.2042 17.2854C31.4594 18.3407 30.6652 19.3591 29.9278 20.419C29.2501 21.3879 29.3037 21.8758 30.1451 22.7171Z" fill="white"/>
</svg>
